<svg width="120" height="100" viewBox="0 0 120 100" fill="none" xmlns="http://www.w3.org/2000/svg">
<g id="triangles">
<g id="lightgroup">
<path id="light1" d="M57.3413 46.5774C59.9144 48.1337 59.9144 51.8663 57.3413 53.4226L21.8202 74.9073C19.1543 76.5198 15.75 74.6002 15.75 71.4847L15.75 28.5153C15.75 25.3998 19.1543 23.4802 21.8202 25.0927L57.3413 46.5774Z" fill="#C4C4C4" fill-opacity="0.8"/>
</g>
<g id="darkgroup">
<path id="dark2" d="M57.3413 46.5774C59.9144 48.1337 59.9144 51.8663 57.3413 53.4226L21.8202 74.9073C19.1543 76.5198 15.75 74.6002 15.75 71.4847L15.75 28.5153C15.75 25.3998 19.1543 23.4802 21.8202 25.0927L57.3413 46.5774Z" fill="#E78080" fill-opacity="0.8"/>
<path id="dark1" d="M75.3413 46.5774C77.9144 48.1337 77.9144 51.8663 75.3413 53.4226L39.8202 74.9073C37.1543 76.5198 33.75 74.6002 33.75 71.4847L33.75 28.5153C33.75 25.3998 37.1543 23.4802 39.8202 25.0927L75.3413 46.5774Z" fill="#E78080" fill-opacity="0.8"/>
</g>
</g>
</svg>
